<?xml version="1.0" encoding="iso-8859-1"?>
<svg version="1.1" xmlns="http://www.w3.org/2000/svg" xmlns:xlink="http://www.w3.org/1999/xlink" x="0px" y="0px"
	 viewBox="0 0 512 512" style="enable-background:new 0 0 512 512;" xml:space="preserve">
<g>
	<g>
		<path d="M353.355,28.462c-17.635,0-34.623,5.614-48.678,15.955C290.623,34.076,273.635,28.462,256,28.462
			s-34.623,5.613-48.678,15.955c-14.055-10.342-31.042-15.955-48.678-15.955c-45.338,0-82.224,36.885-82.224,82.223
			c0,34.187,20.977,63.557,50.73,75.942v182.92c0,5.523,4.477,10,10,10h237.697c5.522,0,10-4.477,10-10v-182.92
			c29.754-12.385,50.73-41.756,50.73-75.942C435.579,65.348,398.693,28.462,353.355,28.462z M364.849,359.548h-48.146V246.882
			c0-5.523-4.478-10-10-10c-5.522,0-10,4.477-10,10v112.666h-81.407V246.882c0-5.523-4.477-10-10-10s-10,4.477-10,10v112.666
			h-48.145V192.111c1.002,0.14,2.008,0.26,3.017,0.363c0.129,0.013,0.26,0.021,0.389,0.034c1.109,0.109,2.222,0.191,3.337,0.255
			c0.334,0.019,0.667,0.037,1.002,0.052c1.226,0.055,2.455,0.093,3.687,0.094c0.02,0,0.04,0.001,0.061,0.001
			c12.515,0,24.699-2.841,35.745-8.179c4.519-2.184,8.853-4.774,12.933-7.776c3.927,2.89,8.091,5.396,12.426,7.528
			c11.18,5.498,23.544,8.427,36.251,8.427c17.634,0,34.622-5.614,48.678-15.955c14.056,10.341,31.044,15.955,48.678,15.955
			c0.02,0,0.04-0.001,0.06-0.001c1.232-0.001,2.46-0.038,3.687-0.094c0.335-0.015,0.669-0.033,1.003-0.052
			c1.115-0.064,2.227-0.146,3.335-0.255c0.13-0.013,0.261-0.021,0.391-0.034c1.009-0.104,2.015-0.223,3.018-0.363V359.548z
			 M366.038,171.607c-0.09,0.018-0.179,0.038-0.269,0.056c-1.912,0.389-3.856,0.687-5.826,0.895
			c-0.227,0.024-0.455,0.042-0.683,0.064c-0.732,0.069-1.468,0.125-2.207,0.168c-0.276,0.016-0.552,0.034-0.828,0.046
			c-0.927,0.042-1.858,0.07-2.796,0.071c-0.024,0-0.048,0.001-0.073,0.001c-11.556,0-22.743-3.192-32.442-9.128
			c-3.358-2.055-6.54-4.434-9.494-7.13c-3.818-3.486-9.666-3.486-13.484,0c-2.954,2.696-6.136,5.075-9.494,7.13
			c-9.698,5.936-20.885,9.128-32.442,9.128c-15.558,0-30.451-5.774-41.936-16.258c-3.818-3.486-9.666-3.486-13.484,0
			c-11.484,10.484-26.377,16.258-41.936,16.258c-0.024,0-0.048-0.001-0.073-0.001c-0.937-0.001-1.868-0.029-2.796-0.071
			c-0.277-0.013-0.553-0.03-0.829-0.046c-0.739-0.044-1.475-0.099-2.207-0.168c-0.228-0.021-0.456-0.04-0.683-0.064
			c-1.971-0.208-3.915-0.506-5.827-0.895c-0.09-0.018-0.179-0.038-0.269-0.056c-28.249-5.873-49.541-30.956-49.541-60.921
			c0-34.31,27.914-62.223,62.224-62.223c15.559,0,30.452,5.774,41.936,16.258c3.818,3.486,9.666,3.486,13.484,0
			C225.548,54.236,240.441,48.462,256,48.462c15.558,0,30.451,5.774,41.935,16.258c3.818,3.486,9.666,3.486,13.484,0
			c11.484-10.484,26.378-16.258,41.936-16.258c34.31,0,62.224,27.913,62.224,62.223
			C415.579,140.651,394.287,165.733,366.038,171.607z" fill="#666666"/>
	</g>
</g>
<g>
	<g>
		<path d="M80.999,184.905c-5.523,0-10,4.477-10,10v32.357h-15.5v-36.023c0-5.523-4.477-10-10-10c-5.523,0-10,4.477-10,10v36.023H20
			v-32.357c0-5.523-4.477-10-10-10s-10,4.477-10,10v42.357v8.232c0,21.652,15.208,39.808,35.499,44.379v24.277H24.417
			c-5.523,0-10,4.477-10,10v128.306c0,17.139,13.943,31.082,31.083,31.082c17.138,0,31.081-13.943,31.081-31.082V324.149
			c0-5.523-4.477-10-10-10H55.499v-24.277c20.292-4.57,35.5-22.726,35.5-44.379v-8.232v-42.357
			C90.999,189.382,86.522,184.905,80.999,184.905z M56.581,334.149v118.307c0,6.111-4.971,11.082-11.082,11.082
			c-6.111,0-11.082-4.971-11.082-11.082V334.149H56.581z M45.499,270.994c-13.467,0-24.528-10.493-25.439-23.732h50.879
			C70.028,260.501,58.966,270.994,45.499,270.994z" fill="#666666"/>
	</g>
</g>
<g>
	<g>
		<path d="M502,171.111h-8.6c-28.02,0-50.814,22.795-50.814,50.815v109.88c0,4.568,3.066,8.412,7.25,9.608v111.042
			c0,17.139,13.943,31.082,31.082,31.082c17.139,0,31.082-13.943,31.082-31.082v-120.65V181.111
			C512,175.588,507.522,171.111,502,171.111z M492,452.456c0,6.111-4.972,11.082-11.082,11.082s-11.082-4.971-11.082-11.082v-110.65
			H492V452.456z M492,321.806h-29.414v-99.88c0-16.521,13.071-30.048,29.414-30.784V321.806z" fill="#666666"/>
	</g>
</g>
<g>
	<g>
		<path d="M212.37,204.81c-0.46-0.46-0.97-0.88-1.52-1.24c-0.54-0.36-1.13-0.67-1.73-0.92c-0.6-0.25-1.23-0.44-1.87-0.57
			c-3.25-0.66-6.7,0.41-9.02,2.73c-1.87,1.86-2.93,4.44-2.93,7.07c0,0.65,0.06,1.31,0.19,1.96c0.13,0.63,0.32,1.26,0.57,1.87
			c0.25,0.6,0.56,1.18,0.92,1.72c0.37,0.55,0.78,1.06,1.25,1.52c1.86,1.87,4.43,2.93,7.07,2.93c0.65,0,1.31-0.06,1.95-0.19
			c0.64-0.13,1.27-0.32,1.87-0.57c0.6-0.25,1.19-0.559,1.73-0.92c0.55-0.37,1.06-0.79,1.52-1.25c0.46-0.46,0.88-0.97,1.24-1.52
			c0.36-0.54,0.67-1.12,0.92-1.72c0.25-0.61,0.44-1.24,0.57-1.87c0.13-0.65,0.2-1.31,0.2-1.96
			C215.3,209.25,214.23,206.67,212.37,204.81z" fill="#666666"/>
	</g>
</g>
<g>
	<g>
		<path d="M316.51,209.93c-0.13-0.64-0.32-1.27-0.57-1.87c-0.25-0.61-0.56-1.191-0.92-1.73c-0.37-0.55-0.79-1.06-1.25-1.52
			c-0.46-0.46-0.97-0.88-1.52-1.24c-0.54-0.36-1.12-0.67-1.72-0.92c-0.61-0.25-1.23-0.44-1.87-0.57c-1.29-0.26-2.62-0.26-3.91,0
			c-0.641,0.13-1.271,0.32-1.87,0.57c-0.61,0.25-1.19,0.56-1.73,0.92c-0.55,0.36-1.06,0.78-1.52,1.24
			c-0.46,0.46-0.88,0.97-1.24,1.52c-0.359,0.54-0.67,1.12-0.92,1.73c-0.25,0.6-0.439,1.23-0.57,1.87
			c-0.13,0.64-0.199,1.3-0.199,1.95c0,0.65,0.069,1.31,0.199,1.96c0.131,0.63,0.32,1.26,0.57,1.87c0.25,0.6,0.561,1.18,0.92,1.72
			c0.36,0.55,0.78,1.06,1.24,1.52c0.46,0.46,0.97,0.88,1.52,1.25c0.54,0.36,1.12,0.67,1.73,0.92c0.6,0.25,1.229,0.441,1.87,0.57
			c0.64,0.13,1.3,0.19,1.95,0.19c0.649,0,1.31-0.06,1.96-0.19c0.64-0.13,1.26-0.32,1.87-0.57c0.6-0.25,1.18-0.559,1.72-0.92
			c0.55-0.37,1.06-0.79,1.52-1.25c0.46-0.46,0.88-0.97,1.25-1.52c0.36-0.54,0.67-1.12,0.92-1.72c0.25-0.61,0.44-1.24,0.57-1.87
			c0.13-0.65,0.19-1.31,0.19-1.96C316.7,211.23,316.639,210.57,316.51,209.93z" fill="#666666"/>
	</g>
</g>
</svg>
